<svg width="47" height="49" viewBox="0 0 47 49" fill="none" xmlns="http://www.w3.org/2000/svg">
<path d="M15.7951 37.1432C15.8911 37.4923 15.9509 37.7499 16.0325 37.9995C16.2786 38.756 16.5432 39.5061 16.7799 40.2657C16.8853 40.6029 17.0819 40.7799 17.4113 40.8316C19.1616 41.1056 20.9032 41.5039 22.6629 41.6296C24.5754 41.7664 26.521 41.8177 28.4234 41.6146C33.5165 41.0707 38.1959 39.2761 42.3473 36.0991C43.3051 35.366 44.221 34.5733 45.2206 33.7547C44.7169 35.1384 44.0996 36.378 43.3689 37.5481C39.6392 43.5213 34.4505 47.2892 27.7105 48.5878C15.4286 50.9539 3.61215 42.909 0.649604 30.2297C0.0734136 27.7634 -0.116197 25.2542 0.0677293 22.7412C0.874663 11.7134 8.40928 2.90856 18.5045 0.567978C20.7664 0.0433121 23.0735 -0.13472 25.3612 0.104748C33.5513 0.961391 39.7757 5.10742 43.9552 12.5229C45.46 15.1934 46.3455 18.1068 46.7482 21.1641C46.9739 22.8794 47.117 24.6175 46.8719 26.3486C46.8277 26.6617 46.6288 27.0126 46.3987 27.2258C44.9875 28.5321 43.6174 29.9036 42.1028 31.0678C38.1297 34.1219 33.6409 36.0073 28.8291 37.0605C26.1474 37.6476 23.421 37.8148 20.6888 37.6675C19.2392 37.5893 17.7979 37.3397 16.3525 37.1708C16.197 37.1526 16.0395 37.1547 15.7951 37.1432Z" fill="#4150FF"/>
</svg>
