<svg width="109" height="43" viewBox="0 0 109 43" fill="none" xmlns="http://www.w3.org/2000/svg">
<path d="M6.38524 25.1605C6.42404 25.303 6.44824 25.4081 6.48123 25.51C6.58072 25.8188 6.68766 26.125 6.78337 26.435C6.82595 26.5726 6.90544 26.6449 7.0386 26.666C7.74617 26.7778 8.45023 26.9404 9.16159 26.9917C9.93472 27.0475 10.7212 27.0685 11.4903 26.9855C13.5492 26.7636 15.4409 26.0311 17.1191 24.7343C17.5063 24.4351 17.8766 24.1115 18.2807 23.7774C18.0771 24.3422 17.8275 24.8482 17.5321 25.3258C16.0244 27.7638 13.9268 29.3017 11.2021 29.8318C6.23708 30.7975 1.46023 27.5139 0.262606 22.3386C0.0296778 21.332 -0.0469732 20.3078 0.0273799 19.2821C0.353587 14.781 3.3995 11.1872 7.48053 10.2318C8.39494 10.0177 9.3276 9.94501 10.2524 10.0428C13.5633 10.3924 16.0795 12.0847 17.7691 15.1114C18.3774 16.2014 18.7354 17.3905 18.8982 18.6384C18.9894 19.3385 19.0473 20.048 18.9482 20.7545C18.9304 20.8823 18.8499 21.0255 18.7569 21.1126C18.1864 21.6458 17.6326 22.2056 17.0203 22.6807C15.4141 23.9273 13.5995 24.6969 11.6543 25.1267C10.5702 25.3664 9.46806 25.4346 8.36358 25.3745C7.77754 25.3426 7.19488 25.2407 6.6106 25.1717C6.54774 25.1643 6.48407 25.1652 6.38524 25.1605Z" fill="#4150FF"/>
<path d="M27.213 14.185V26H25.275V14.185H27.213ZM34.4834 16.48C35.2201 16.48 35.8774 16.633 36.4554 16.939C37.0448 17.245 37.5038 17.6983 37.8324 18.299C38.1611 18.8997 38.3254 19.625 38.3254 20.475V26H36.4044V20.764C36.4044 19.9253 36.1948 19.285 35.7754 18.843C35.3561 18.3897 34.7838 18.163 34.0584 18.163C33.3331 18.163 32.7551 18.3897 32.3244 18.843C31.9051 19.285 31.6954 19.9253 31.6954 20.764V26H29.7574V16.633H31.6954V17.704C32.0128 17.3187 32.4151 17.0183 32.9024 16.803C33.4011 16.5877 33.9281 16.48 34.4834 16.48ZM43.0585 18.214V23.399C43.0585 23.7503 43.1378 24.0053 43.2965 24.164C43.4665 24.3113 43.7498 24.385 44.1465 24.385H45.3365V26H43.8065C42.9338 26 42.2651 25.796 41.8005 25.388C41.3358 24.98 41.1035 24.317 41.1035 23.399V18.214H39.9985V16.633H41.1035V14.304H43.0585V16.633H45.3365V18.214H43.0585ZM55.7077 21.087C55.7077 21.4383 55.685 21.7557 55.6397 22.039H48.4827C48.5393 22.787 48.817 23.3877 49.3157 23.841C49.8143 24.2943 50.4263 24.521 51.1517 24.521C52.1943 24.521 52.931 24.0847 53.3617 23.212H55.4527C55.1693 24.0733 54.6537 24.7817 53.9057 25.337C53.169 25.881 52.251 26.153 51.1517 26.153C50.2563 26.153 49.4517 25.9547 48.7377 25.558C48.035 25.15 47.4797 24.5833 47.0717 23.858C46.675 23.1213 46.4767 22.2713 46.4767 21.308C46.4767 20.3447 46.6693 19.5003 47.0547 18.775C47.4513 18.0383 48.001 17.4717 48.7037 17.075C49.4177 16.6783 50.2337 16.48 51.1517 16.48C52.0357 16.48 52.8233 16.6727 53.5147 17.058C54.206 17.4433 54.7443 17.9873 55.1297 18.69C55.515 19.3813 55.7077 20.1803 55.7077 21.087ZM53.6847 20.475C53.6733 19.761 53.4183 19.1887 52.9197 18.758C52.421 18.3273 51.8033 18.112 51.0667 18.112C50.398 18.112 49.8257 18.3273 49.3497 18.758C48.8737 19.1773 48.5903 19.7497 48.4997 20.475H53.6847ZM59.5528 17.993C59.8362 17.517 60.2102 17.1487 60.6748 16.888C61.1508 16.616 61.7118 16.48 62.3578 16.48V18.486H61.8648C61.1055 18.486 60.5275 18.6787 60.1308 19.064C59.7455 19.4493 59.5528 20.118 59.5528 21.07V26H57.6148V16.633H59.5528V17.993ZM68.0663 18.214H66.3323V26H64.3773V18.214H63.2723V16.633H64.3773V15.97C64.3773 14.8933 64.6606 14.1113 65.2273 13.624C65.8053 13.1253 66.7063 12.876 67.9303 12.876V14.491C67.3409 14.491 66.9273 14.6043 66.6893 14.831C66.4513 15.0463 66.3323 15.426 66.3323 15.97V16.633H68.0663V18.214ZM69.1378 21.274C69.1378 20.3333 69.3305 19.5003 69.7158 18.775C70.1125 18.0497 70.6451 17.4887 71.3138 17.092C71.9938 16.684 72.7418 16.48 73.5578 16.48C74.2945 16.48 74.9348 16.6273 75.4788 16.922C76.0341 17.2053 76.4761 17.5623 76.8048 17.993V16.633H78.7598V26H76.8048V24.606C76.4761 25.048 76.0285 25.4163 75.4618 25.711C74.8951 26.0057 74.2491 26.153 73.5238 26.153C72.7191 26.153 71.9825 25.949 71.3138 25.541C70.6451 25.1217 70.1125 24.5437 69.7158 23.807C69.3305 23.059 69.1378 22.2147 69.1378 21.274ZM76.8048 21.308C76.8048 20.662 76.6688 20.101 76.3968 19.625C76.1361 19.149 75.7905 18.7863 75.3598 18.537C74.9291 18.2877 74.4645 18.163 73.9658 18.163C73.4671 18.163 73.0025 18.2877 72.5718 18.537C72.1411 18.775 71.7898 19.132 71.5178 19.608C71.2571 20.0727 71.1268 20.628 71.1268 21.274C71.1268 21.92 71.2571 22.4867 71.5178 22.974C71.7898 23.4613 72.1411 23.8353 72.5718 24.096C73.0138 24.3453 73.4785 24.47 73.9658 24.47C74.4645 24.47 74.9291 24.3453 75.3598 24.096C75.7905 23.8467 76.1361 23.484 76.3968 23.008C76.6688 22.5207 76.8048 21.954 76.8048 21.308ZM80.6593 21.308C80.6593 20.3447 80.8519 19.5003 81.2373 18.775C81.6339 18.0383 82.1779 17.4717 82.8693 17.075C83.5606 16.6783 84.3539 16.48 85.2493 16.48C86.3826 16.48 87.3176 16.752 88.0543 17.296C88.8023 17.8287 89.3066 18.5937 89.5673 19.591H87.4763C87.3063 19.1263 87.0343 18.7637 86.6603 18.503C86.2863 18.2423 85.8159 18.112 85.2493 18.112C84.4559 18.112 83.8213 18.3953 83.3453 18.962C82.8806 19.5173 82.6483 20.2993 82.6483 21.308C82.6483 22.3167 82.8806 23.1043 83.3453 23.671C83.8213 24.2377 84.4559 24.521 85.2493 24.521C86.3713 24.521 87.1136 24.028 87.4763 23.042H89.5673C89.2953 23.994 88.7853 24.7533 88.0373 25.32C87.2893 25.8753 86.3599 26.153 85.2493 26.153C84.3539 26.153 83.5606 25.9547 82.8693 25.558C82.1779 25.15 81.6339 24.5833 81.2373 23.858C80.8519 23.1213 80.6593 22.2713 80.6593 21.308ZM100.084 21.087C100.084 21.4383 100.061 21.7557 100.016 22.039H92.8586C92.9153 22.787 93.193 23.3877 93.6916 23.841C94.1903 24.2943 94.8023 24.521 95.5276 24.521C96.5703 24.521 97.307 24.0847 97.7376 23.212H99.8286C99.5453 24.0733 99.0296 24.7817 98.2816 25.337C97.545 25.881 96.627 26.153 95.5276 26.153C94.6323 26.153 93.8276 25.9547 93.1136 25.558C92.411 25.15 91.8556 24.5833 91.4476 23.858C91.051 23.1213 90.8526 22.2713 90.8526 21.308C90.8526 20.3447 91.0453 19.5003 91.4306 18.775C91.8273 18.0383 92.377 17.4717 93.0796 17.075C93.7936 16.6783 94.6096 16.48 95.5276 16.48C96.4116 16.48 97.1993 16.6727 97.8906 17.058C98.582 17.4433 99.1203 17.9873 99.5056 18.69C99.891 19.3813 100.084 20.1803 100.084 21.087ZM98.0606 20.475C98.0493 19.761 97.7943 19.1887 97.2956 18.758C96.797 18.3273 96.1793 18.112 95.4426 18.112C94.774 18.112 94.2016 18.3273 93.7256 18.758C93.2496 19.1773 92.9663 19.7497 92.8756 20.475H98.0606Z" fill="black"/>
<path d="M46.61 37.063C46.016 37.063 45.47 36.925 44.972 36.649C44.48 36.373 44.087 35.989 43.793 35.497C43.505 34.999 43.361 34.441 43.361 33.823C43.361 33.205 43.505 32.65 43.793 32.158C44.087 31.666 44.48 31.282 44.972 31.006C45.47 30.73 46.016 30.592 46.61 30.592C47.204 30.592 47.747 30.73 48.239 31.006C48.737 31.282 49.127 31.666 49.409 32.158C49.697 32.65 49.841 33.205 49.841 33.823C49.841 34.441 49.697 34.999 49.409 35.497C49.121 35.989 48.731 36.373 48.239 36.649C47.747 36.925 47.204 37.063 46.61 37.063ZM46.61 35.659C47.114 35.659 47.516 35.491 47.816 35.155C48.122 34.819 48.275 34.375 48.275 33.823C48.275 33.265 48.122 32.821 47.816 32.491C47.516 32.155 47.114 31.987 46.61 31.987C46.1 31.987 45.692 32.152 45.386 32.482C45.086 32.812 44.936 33.259 44.936 33.823C44.936 34.381 45.086 34.828 45.386 35.164C45.692 35.494 46.1 35.659 46.61 35.659ZM53.7572 31.924C54.3452 31.924 54.8132 32.116 55.1612 32.5C55.5152 32.878 55.6922 33.4 55.6922 34.066V37H54.1622V34.273C54.1622 33.937 54.0752 33.676 53.9012 33.49C53.7272 33.304 53.4932 33.211 53.1992 33.211C52.9052 33.211 52.6712 33.304 52.4972 33.49C52.3232 33.676 52.2362 33.937 52.2362 34.273V37H50.6972V31.978H52.2362V32.644C52.3922 32.422 52.6022 32.248 52.8662 32.122C53.1302 31.99 53.4272 31.924 53.7572 31.924ZM58.3006 32.689C58.4446 32.455 58.6516 32.266 58.9216 32.122C59.1916 31.978 59.5006 31.906 59.8486 31.906C60.2626 31.906 60.6376 32.011 60.9736 32.221C61.3096 32.431 61.5736 32.731 61.7656 33.121C61.9636 33.511 62.0626 33.964 62.0626 34.48C62.0626 34.996 61.9636 35.452 61.7656 35.848C61.5736 36.238 61.3096 36.541 60.9736 36.757C60.6376 36.967 60.2626 37.072 59.8486 37.072C59.4946 37.072 59.1856 37.003 58.9216 36.865C58.6576 36.721 58.4506 36.532 58.3006 36.298V37H56.7616V30.34H58.3006V32.689ZM60.4966 34.48C60.4966 34.096 60.3886 33.796 60.1726 33.58C59.9626 33.358 59.7016 33.247 59.3896 33.247C59.0836 33.247 58.8226 33.358 58.6066 33.58C58.3966 33.802 58.2916 34.105 58.2916 34.489C58.2916 34.873 58.3966 35.176 58.6066 35.398C58.8226 35.62 59.0836 35.731 59.3896 35.731C59.6956 35.731 59.9566 35.62 60.1726 35.398C60.3886 35.17 60.4966 34.864 60.4966 34.48ZM65.156 37.072C64.664 37.072 64.22 36.967 63.824 36.757C63.434 36.547 63.125 36.247 62.897 35.857C62.675 35.467 62.564 35.011 62.564 34.489C62.564 33.973 62.678 33.52 62.906 33.13C63.134 32.734 63.446 32.431 63.842 32.221C64.238 32.011 64.682 31.906 65.174 31.906C65.666 31.906 66.11 32.011 66.506 32.221C66.902 32.431 67.214 32.734 67.442 33.13C67.67 33.52 67.784 33.973 67.784 34.489C67.784 35.005 67.667 35.461 67.433 35.857C67.205 36.247 66.89 36.547 66.488 36.757C66.092 36.967 65.648 37.072 65.156 37.072ZM65.156 35.74C65.45 35.74 65.699 35.632 65.903 35.416C66.113 35.2 66.218 34.891 66.218 34.489C66.218 34.087 66.116 33.778 65.912 33.562C65.714 33.346 65.468 33.238 65.174 33.238C64.874 33.238 64.625 33.346 64.427 33.562C64.229 33.772 64.13 34.081 64.13 34.489C64.13 34.891 64.226 35.2 64.418 35.416C64.616 35.632 64.862 35.74 65.156 35.74ZM68.2945 34.48C68.2945 33.964 68.3905 33.511 68.5825 33.121C68.7805 32.731 69.0475 32.431 69.3835 32.221C69.7195 32.011 70.0945 31.906 70.5085 31.906C70.8625 31.906 71.1715 31.978 71.4355 32.122C71.7055 32.266 71.9125 32.455 72.0565 32.689V31.978H73.5955V37H72.0565V36.289C71.9065 36.523 71.6965 36.712 71.4265 36.856C71.1625 37 70.8535 37.072 70.4995 37.072C70.0915 37.072 69.7195 36.967 69.3835 36.757C69.0475 36.541 68.7805 36.238 68.5825 35.848C68.3905 35.452 68.2945 34.996 68.2945 34.48ZM72.0565 34.489C72.0565 34.105 71.9485 33.802 71.7325 33.58C71.5225 33.358 71.2645 33.247 70.9585 33.247C70.6525 33.247 70.3915 33.358 70.1755 33.58C69.9655 33.796 69.8605 34.096 69.8605 34.48C69.8605 34.864 69.9655 35.17 70.1755 35.398C70.3915 35.62 70.6525 35.731 70.9585 35.731C71.2645 35.731 71.5225 35.62 71.7325 35.398C71.9485 35.176 72.0565 34.873 72.0565 34.489ZM76.2479 32.815C76.4279 32.539 76.6529 32.323 76.9229 32.167C77.1929 32.005 77.4929 31.924 77.8229 31.924V33.553H77.3999C77.0159 33.553 76.7279 33.637 76.5359 33.805C76.3439 33.967 76.2479 34.255 76.2479 34.669V37H74.7089V31.978H76.2479V32.815ZM78.2525 34.48C78.2525 33.964 78.3485 33.511 78.5405 33.121C78.7385 32.731 79.0055 32.431 79.3415 32.221C79.6775 32.011 80.0525 31.906 80.4665 31.906C80.7965 31.906 81.0965 31.975 81.3665 32.113C81.6425 32.251 81.8585 32.437 82.0145 32.671V30.34H83.5535V37H82.0145V36.28C81.8705 36.52 81.6635 36.712 81.3935 36.856C81.1295 37 80.8205 37.072 80.4665 37.072C80.0525 37.072 79.6775 36.967 79.3415 36.757C79.0055 36.541 78.7385 36.238 78.5405 35.848C78.3485 35.452 78.2525 34.996 78.2525 34.48ZM82.0145 34.489C82.0145 34.105 81.9065 33.802 81.6905 33.58C81.4805 33.358 81.2225 33.247 80.9165 33.247C80.6105 33.247 80.3495 33.358 80.1335 33.58C79.9235 33.796 79.8185 34.096 79.8185 34.48C79.8185 34.864 79.9235 35.17 80.1335 35.398C80.3495 35.62 80.6105 35.731 80.9165 35.731C81.2225 35.731 81.4805 35.62 81.6905 35.398C81.9065 35.176 82.0145 34.873 82.0145 34.489ZM85.4409 31.456C85.1709 31.456 84.9489 31.378 84.7749 31.222C84.6069 31.06 84.5229 30.862 84.5229 30.628C84.5229 30.388 84.6069 30.19 84.7749 30.034C84.9489 29.872 85.1709 29.791 85.4409 29.791C85.7049 29.791 85.9209 29.872 86.0889 30.034C86.2629 30.19 86.3499 30.388 86.3499 30.628C86.3499 30.862 86.2629 31.06 86.0889 31.222C85.9209 31.378 85.7049 31.456 85.4409 31.456ZM86.2059 31.978V37H84.6669V31.978H86.2059ZM90.3812 31.924C90.9692 31.924 91.4372 32.116 91.7852 32.5C92.1392 32.878 92.3162 33.4 92.3162 34.066V37H90.7862V34.273C90.7862 33.937 90.6992 33.676 90.5252 33.49C90.3512 33.304 90.1172 33.211 89.8232 33.211C89.5292 33.211 89.2952 33.304 89.1212 33.49C88.9472 33.676 88.8602 33.937 88.8602 34.273V37H87.3212V31.978H88.8602V32.644C89.0162 32.422 89.2262 32.248 89.4902 32.122C89.7542 31.99 90.0512 31.924 90.3812 31.924ZM95.2936 31.906C95.6476 31.906 95.9566 31.978 96.2206 32.122C96.4906 32.266 96.6976 32.455 96.8416 32.689V31.978H98.3806V36.991C98.3806 37.453 98.2876 37.87 98.1016 38.242C97.9216 38.62 97.6426 38.92 97.2646 39.142C96.8926 39.364 96.4276 39.475 95.8696 39.475C95.1256 39.475 94.5226 39.298 94.0606 38.944C93.5986 38.596 93.3346 38.122 93.2686 37.522H94.7896C94.8376 37.714 94.9516 37.864 95.1316 37.972C95.3116 38.086 95.5336 38.143 95.7976 38.143C96.1156 38.143 96.3676 38.05 96.5536 37.864C96.7456 37.684 96.8416 37.393 96.8416 36.991V36.28C96.6916 36.514 96.4846 36.706 96.2206 36.856C95.9566 37 95.6476 37.072 95.2936 37.072C94.8796 37.072 94.5046 36.967 94.1686 36.757C93.8326 36.541 93.5656 36.238 93.3676 35.848C93.1756 35.452 93.0796 34.996 93.0796 34.48C93.0796 33.964 93.1756 33.511 93.3676 33.121C93.5656 32.731 93.8326 32.431 94.1686 32.221C94.5046 32.011 94.8796 31.906 95.2936 31.906ZM96.8416 34.489C96.8416 34.105 96.7336 33.802 96.5176 33.58C96.3076 33.358 96.0496 33.247 95.7436 33.247C95.4376 33.247 95.1766 33.358 94.9606 33.58C94.7506 33.796 94.6456 34.096 94.6456 34.48C94.6456 34.864 94.7506 35.17 94.9606 35.398C95.1766 35.62 95.4376 35.731 95.7436 35.731C96.0496 35.731 96.3076 35.62 96.5176 35.398C96.7336 35.176 96.8416 34.873 96.8416 34.489Z" fill="#4150FF"/>
</svg>
