<svg width="25" height="25" viewBox="0 0 25 25" fill="none" xmlns="http://www.w3.org/2000/svg">
<path d="M10.9375 4.6875L11.7188 3.125L13.2812 2.34375L11.7188 1.5625L10.9375 0L10.1562 1.5625L8.59375 2.34375L10.1562 3.125L10.9375 4.6875ZM3.90625 7.8125L5.20801 5.2085L7.8125 3.90625L5.20801 2.604L3.90625 0L2.60449 2.604L0 3.90625L2.60449 5.2085L3.90625 7.8125ZM21.0938 14.0625L19.792 16.6665L17.1875 17.9688L19.792 19.271L21.0938 21.875L22.3955 19.271L25 17.9688L22.3955 16.6665L21.0938 14.0625ZM24.542 4.60107L20.3989 0.458008C20.0942 0.152344 19.6943 0 19.2944 0C18.8945 0 18.4946 0.152344 18.1895 0.458008L0.458008 18.1895C-0.152344 18.7998 -0.152344 19.7891 0.458008 20.3989L4.60107 24.542C4.90625 24.8472 5.30615 24.9995 5.70557 24.9995C6.10547 24.9995 6.50537 24.8472 6.81055 24.542L24.542 6.81006C25.1523 6.20068 25.1523 5.21094 24.542 4.60107ZM17.5513 9.93457L15.0654 7.44873L19.2939 3.22021L21.7798 5.70605L17.5513 9.93457Z" fill="white"/>
</svg>
