<svg width="20" height="33" viewBox="0 0 20 33" fill="none" xmlns="http://www.w3.org/2000/svg">
<path d="M17 0H3C1.34375 0 0 1.38574 0 3.09375V29.9062C0 31.6143 1.34375 33 3 33H17C18.6563 33 20 31.6143 20 29.9062V3.09375C20 1.38574 18.6563 0 17 0ZM10 30.9375C8.89375 30.9375 8 30.0158 8 28.875C8 27.7342 8.89375 26.8125 10 26.8125C11.1062 26.8125 12 27.7342 12 28.875C12 30.0158 11.1062 30.9375 10 30.9375ZM17 23.9766C17 24.402 16.6625 24.75 16.25 24.75H3.75C3.3375 24.75 3 24.402 3 23.9766V3.86719C3 3.4418 3.3375 3.09375 3.75 3.09375H16.25C16.6625 3.09375 17 3.4418 17 3.86719V23.9766Z" fill="white"/>
</svg>
