<svg width="169" height="66" viewBox="0 0 169 66" fill="none" xmlns="http://www.w3.org/2000/svg">
<path d="M28.05 4H4.95C2.21719 4 0 6.26758 0 9.0625V52.9375C0 55.7324 2.21719 58 4.95 58H28.05C30.7828 58 33 55.7324 33 52.9375V9.0625C33 6.26758 30.7828 4 28.05 4ZM16.5 54.625C14.6747 54.625 13.2 53.1168 13.2 51.25C13.2 49.3832 14.6747 47.875 16.5 47.875C18.3253 47.875 19.8 49.3832 19.8 51.25C19.8 53.1168 18.3253 54.625 16.5 54.625ZM28.05 43.2344C28.05 43.9305 27.4931 44.5 26.8125 44.5H6.1875C5.50688 44.5 4.95 43.9305 4.95 43.2344V10.3281C4.95 9.63203 5.50688 9.0625 6.1875 9.0625H26.8125C27.4931 9.0625 28.05 9.63203 28.05 10.3281V43.2344Z" fill="#777777"/>
<path d="M162.75 0H100.25C96.7995 0 94 2.77148 94 6.1875V47.4375C94 50.8535 96.7995 53.625 100.25 53.625H125.25L123.167 59.8125H113.792C112.06 59.8125 110.667 61.1918 110.667 62.9062C110.667 64.6207 112.06 66 113.792 66H149.208C150.94 66 152.333 64.6207 152.333 62.9062C152.333 61.1918 150.94 59.8125 149.208 59.8125H139.833L137.75 53.625H162.75C166.201 53.625 169 50.8535 169 47.4375V6.1875C169 2.77148 166.201 0 162.75 0ZM160.667 45.375H102.333V8.25H160.667V45.375Z" fill="#4150FF"/>
<path d="M143.219 26.1094C143.219 32.7972 137.797 38.2188 131.109 38.2188C124.422 38.2188 119 32.7972 119 26.1094C119 19.4215 124.422 14 131.109 14C137.797 14 143.219 19.4215 143.219 26.1094ZM129.709 32.5212L138.693 23.5368C138.998 23.2317 138.998 22.7371 138.693 22.432L137.588 21.3271C137.283 21.022 136.788 21.022 136.483 21.3271L129.156 28.6542L125.735 25.2333C125.43 24.9283 124.936 24.9283 124.631 25.2333L123.526 26.3382C123.221 26.6433 123.221 27.1379 123.526 27.443L128.604 32.5211C128.909 32.8263 129.404 32.8263 129.709 32.5212Z" fill="#00A62E"/>
<path d="M23.5 20H10.5C9.67188 20 9 20.6719 9 21.5V32.5C9 33.3281 9.67188 34 10.5 34H23.5C24.3281 34 25 33.3281 25 32.5V21.5C25 20.6719 24.3281 20 23.5 20ZM20.8875 29.0781C21.0375 29.2281 21.0375 29.4719 20.8875 29.6219L19.6219 30.8875C19.4719 31.0375 19.2281 31.0375 19.0781 30.8875L17 28.7906L14.9219 30.8875C14.7719 31.0375 14.5281 31.0375 14.3781 30.8875L13.1125 29.6219C12.9625 29.4719 12.9625 29.2281 13.1125 29.0781L15.2094 27L13.1125 24.9219C12.9625 24.7719 12.9625 24.5281 13.1125 24.3781L14.3781 23.1125C14.5281 22.9625 14.7719 22.9625 14.9219 23.1125L17 25.2094L19.0781 23.1125C19.2281 22.9625 19.4719 22.9625 19.6219 23.1125L20.8875 24.3781C21.0375 24.5281 21.0375 24.7719 20.8875 24.9219L18.7906 27L20.8875 29.0781Z" fill="#777777"/>
<path d="M81.7071 30.7071C82.0976 30.3166 82.0976 29.6834 81.7071 29.2929L75.3431 22.9289C74.9526 22.5384 74.3195 22.5384 73.9289 22.9289C73.5384 23.3195 73.5384 23.9526 73.9289 24.3431L79.5858 30L73.9289 35.6569C73.5384 36.0474 73.5384 36.6805 73.9289 37.0711C74.3195 37.4616 74.9526 37.4616 75.3431 37.0711L81.7071 30.7071ZM42 31H81V29H42V31Z" fill="#777777"/>
</svg>
